<svg width="28" height="28" viewBox="0 0 28 28" fill="none" xmlns="http://www.w3.org/2000/svg">
<g clip-path="url(#clip0_0_859)">
<path d="M0.8794 0.291626H0.869029C0.743437 0.29228 0.619453 0.323441 0.505554 0.38298C0.391656 0.442518 0.290531 0.529029 0.209097 0.636595C0.127662 0.744161 0.0678389 0.870244 0.0337182 1.00622C-0.00040251 1.1422 -0.00801556 1.28487 0.0113997 1.42446L3.69703 26.6C3.7914 27.2335 4.28088 27.7025 4.85229 27.7083H22.5369C22.7448 27.7106 22.9465 27.6292 23.1057 27.4788C23.2649 27.3284 23.371 27.1189 23.4049 26.8881L27.0905 1.42913C27.1099 1.28963 27.1023 1.14706 27.0683 1.01117C27.0342 0.875272 26.9745 0.749248 26.8932 0.641701C26.8118 0.534155 26.7108 0.447621 26.5971 0.38801C26.4833 0.328398 26.3594 0.297114 26.2339 0.296293H26.2225L0.8794 0.291626ZM16.4018 18.4858H10.7572L9.22859 9.50363H17.7696L16.4007 18.487L16.4018 18.4858Z" fill="white"/>
</g>
<defs>
<clipPath id="clip0_0_859">
<rect width="28" height="28" fill="white"/>
</clipPath>
</defs>
</svg>
