<svg width="28" height="28" viewBox="0 0 28 28" fill="none" xmlns="http://www.w3.org/2000/svg">
<g clip-path="url(#clip0_0_848)">
<path d="M13.6108 27.214L8.59601 10.954H18.6181L13.6108 27.214Z" fill="white"/>
<path d="M25.6443 10.954L27.1721 15.894C27.3103 16.343 27.1609 16.838 26.796 17.117L13.6117 27.214L25.6443 10.954Z" fill="white" fill-opacity="0.65"/>
<path d="M25.6443 10.954H18.6191L21.6431 1.16101C21.7971 0.661011 22.4719 0.661011 22.6324 1.16101L25.6443 10.954Z" fill="white"/>
<path d="M1.57271 10.954L0.0513757 15.894C-0.0867577 16.343 0.0625757 16.838 0.427509 17.117L13.6127 27.214L1.57271 10.954Z" fill="white" fill-opacity="0.65"/>
<path d="M1.57266 10.954H8.596L5.57946 1.16101C5.42453 0.661011 4.75066 0.661011 4.59013 1.16101L1.57266 10.954Z" fill="white"/>
<path d="M13.6127 27.214L8.59786 10.954H1.57266L13.6127 27.214Z" fill="white" fill-opacity="0.85"/>
<path d="M13.6117 27.214L25.6443 10.954H18.6191L13.6117 27.214Z" fill="white" fill-opacity="0.85"/>
</g>
<defs>
<clipPath id="clip0_0_848">
<rect width="28" height="28" fill="white"/>
</clipPath>
</defs>
</svg>
