<svg width="28" height="28" viewBox="0 0 28 28" fill="none" xmlns="http://www.w3.org/2000/svg">
<g clip-path="url(#clip0_0_864)">
<path fill-rule="evenodd" clip-rule="evenodd" d="M14.0676 0.466675C10.7157 0.467689 7.47753 1.64129 4.95117 3.77067C2.39585 5.92573 0.707205 8.88181 0.18152 12.1203C-0.354352 15.3703 0.300638 18.6991 2.03338 21.532C3.74434 24.3369 6.43685 26.4577 9.62428 27.5109C10.332 27.6388 10.5821 27.2039 10.5821 26.838V24.4785C6.65724 25.3213 5.82883 22.6128 5.82883 22.6128C5.57207 21.778 5.01931 21.0573 4.26759 20.5772C2.9989 19.7251 4.3709 19.7251 4.3709 19.7251C4.81504 19.7876 5.23986 19.9491 5.61159 20.1964C5.98428 20.4437 6.29421 20.7723 6.51918 21.1568C6.70938 21.4984 6.96718 21.7989 7.27614 22.0425C7.73716 22.4094 8.30274 22.6319 8.89772 22.6806C9.49271 22.7293 10.0889 22.6018 10.6072 22.3151C10.6622 21.6141 10.9683 20.9552 11.4703 20.4577C8.34787 20.1087 5.06897 18.9159 5.06897 13.6444C5.04557 12.2719 5.5606 10.9417 6.51049 9.92134C6.0892 8.72279 6.13834 7.41636 6.64855 6.25054C6.64855 6.25054 7.83035 5.87534 10.5126 7.67294C12.8146 7.04834 15.2501 7.04834 17.5521 7.67294C20.2353 5.87534 21.4084 6.25054 21.4084 6.25054C21.9259 7.40134 21.9877 8.70241 21.5812 9.89614C22.5306 10.9164 23.0452 12.2462 23.0218 13.6183C23.0218 18.9504 19.7352 20.1171 16.603 20.4316C16.939 20.7657 17.1988 21.1661 17.3639 21.6076C17.528 22.0481 17.5956 22.5185 17.5608 22.988V26.7951C17.5608 27.2468 17.8119 27.5959 18.5263 27.4596C21.6777 26.379 24.33 24.2524 26.011 21.4583C27.7132 18.6368 28.3512 15.3323 27.8166 12.1072C27.292 8.89327 25.6219 5.95762 23.0952 3.80801C20.5973 1.68464 17.3937 0.49891 14.0676 0.466675Z" fill="#F9F9F9"/>
</g>
<defs>
<clipPath id="clip0_0_864">
<rect width="28" height="28" fill="white"/>
</clipPath>
</defs>
</svg>
