<svg width="27" height="27" viewBox="0 0 27 27" fill="none" xmlns="http://www.w3.org/2000/svg">
<path d="M4.26483 12.132C4.2224 12.132 4.21179 12.108 4.23301 12.072L4.4558 11.748C4.47701 11.712 4.53006 11.688 4.57249 11.688H8.35992C8.40235 11.688 8.41296 11.724 8.39174 11.76L8.21139 12.072C8.19017 12.108 8.13713 12.144 8.1053 12.144L4.26483 12.132Z" fill="#00ACD7"/>
<path d="M2.66287 13.236C2.62044 13.236 2.60983 13.212 2.63105 13.176L2.85384 12.852C2.87505 12.816 2.9281 12.792 2.97054 12.792H7.80826C7.85069 12.792 7.87191 12.828 7.8613 12.864L7.77643 13.152C7.76582 13.2 7.72339 13.224 7.68095 13.224L2.66287 13.236Z" fill="#00ACD7"/>
<path d="M5.23026 14.34C5.18782 14.34 5.17721 14.304 5.19843 14.268L5.34696 13.968C5.36817 13.932 5.41061 13.896 5.45305 13.896H7.57486C7.61729 13.896 7.63851 13.932 7.63851 13.98L7.61729 14.268C7.61729 14.316 7.57486 14.352 7.54303 14.352L5.23026 14.34Z" fill="#00ACD7"/>
<path d="M16.2424 11.916C15.5741 12.108 15.1179 12.252 14.4601 12.444C14.301 12.492 14.2904 12.504 14.1525 12.324C13.9933 12.12 13.8766 11.988 13.6538 11.868C12.9855 11.496 12.3383 11.604 11.7336 12.048C11.0122 12.576 10.6409 13.356 10.6515 14.328C10.6621 15.288 11.2456 16.08 12.0837 16.212C12.8051 16.32 13.4098 16.032 13.8872 15.42C13.9827 15.288 14.0676 15.144 14.1737 14.976C13.7918 14.976 13.3143 14.976 12.1261 14.976C11.9033 14.976 11.8503 14.82 11.9246 14.616C12.0625 14.244 12.3171 13.62 12.4656 13.308C12.4975 13.236 12.5717 13.116 12.7309 13.116C13.2719 13.116 15.2664 13.116 16.5925 13.116C16.5713 13.44 16.5713 13.764 16.5289 14.088C16.4122 14.952 16.1257 15.744 15.6589 16.44C14.8951 17.58 13.8978 18.288 12.6354 18.48C11.5957 18.636 10.6303 18.408 9.78154 17.688C8.99647 17.016 8.55089 16.128 8.43419 15.024C8.29627 13.716 8.63576 12.54 9.33596 11.508C10.0892 10.392 11.0864 9.68399 12.3065 9.43199C13.3037 9.22799 14.2586 9.35999 15.1179 10.02C15.6802 10.44 16.0833 11.016 16.3485 11.712C16.4122 11.82 16.3698 11.88 16.2424 11.916Z" fill="#00ACD7"/>
<path d="M19.754 18.552C18.7886 18.528 17.9081 18.216 17.1654 17.496C16.5395 16.884 16.147 16.104 16.0196 15.18C15.8287 13.824 16.1576 12.624 16.879 11.556C17.6534 10.404 18.587 9.80396 19.8495 9.55196C20.9316 9.33596 21.9501 9.45596 22.8731 10.164C23.7112 10.812 24.231 11.688 24.369 12.84C24.5493 14.46 24.1356 15.78 23.1489 16.908C22.4487 17.712 21.5894 18.216 20.6027 18.444C20.3163 18.504 20.0299 18.516 19.754 18.552ZM22.279 13.704C22.2684 13.548 22.2684 13.428 22.2472 13.308C22.0562 12.12 21.0908 11.448 20.0829 11.712C19.0963 11.964 18.4597 12.672 18.2263 13.8C18.0354 14.736 18.4385 15.684 19.2024 16.068C19.7859 16.356 20.3694 16.32 20.9316 15.996C21.7697 15.504 22.2259 14.736 22.279 13.704Z" fill="#00ACD7"/>
</svg>
