<svg width="27" height="27" viewBox="0 0 27 27" fill="none" xmlns="http://www.w3.org/2000/svg">
<g clip-path="url(#clip0_0_945)">
<path fill-rule="evenodd" clip-rule="evenodd" d="M0 0H27V27H0V0Z" fill="white"/>
<path fill-rule="evenodd" clip-rule="evenodd" d="M11.258 14.2494C11.258 14.2494 10.6131 14.6246 11.7174 14.7514C13.0557 14.9042 13.7392 14.8822 15.2135 14.6033C15.2135 14.6033 15.6017 14.8463 16.1435 15.0566C12.8376 16.4731 8.66172 14.9746 11.258 14.2494ZM10.8539 12.4009C10.8539 12.4009 10.1304 12.9364 11.2357 13.0507C12.6653 13.1983 13.7937 13.2103 15.7476 12.8344C15.7476 12.8344 16.0174 13.1082 16.442 13.2578C12.4455 14.4267 7.99455 13.3498 10.8539 12.4009Z" fill="#3174B9"/>
<path fill-rule="evenodd" clip-rule="evenodd" d="M14.2589 9.26479C15.0739 10.2029 14.0453 11.0465 14.0453 11.0465C14.0453 11.0465 16.1137 9.97902 15.1637 8.64174C14.2767 7.39522 13.5964 6.77595 17.2791 4.64038C17.279 4.64024 11.4982 6.08356 14.2589 9.26479Z" fill="#CA3132"/>
<path fill-rule="evenodd" clip-rule="evenodd" d="M18.6312 15.6171C18.6312 15.6171 19.1085 16.0107 18.1053 16.3151C16.1977 16.8929 10.164 17.0671 8.48804 16.338C7.886 16.0758 9.01555 15.7123 9.37092 15.6356C9.74156 15.5554 9.95307 15.57 9.95307 15.57C9.28309 15.0982 5.62256 16.4966 8.09401 16.8978C14.8332 17.9905 20.379 16.4058 18.6312 15.6171ZM11.5683 10.4856C11.5683 10.4856 8.49952 11.2147 10.4817 11.4797C11.3189 11.5916 12.9866 11.5658 14.5413 11.4354C15.8115 11.3288 17.0864 11.1008 17.0864 11.1008C17.0864 11.1008 16.6389 11.2928 16.3146 11.5139C13.1979 12.3337 7.17779 11.9519 8.91106 11.1138C10.3765 10.4049 11.5683 10.4856 11.5683 10.4856ZM17.0737 13.5626C20.2417 11.9167 18.777 10.3347 17.7543 10.5479C17.5043 10.6002 17.3921 10.6453 17.3921 10.6453C17.3921 10.6453 17.4854 10.4993 17.6627 10.4365C19.6855 9.72567 21.2409 12.5337 17.0105 13.6458C17.0104 13.6458 17.0591 13.6018 17.0737 13.5626Z" fill="#3174B9"/>
<path fill-rule="evenodd" clip-rule="evenodd" d="M15.1638 1.19116C15.1638 1.19116 16.918 2.94643 13.4996 5.64467C10.7582 7.80994 12.8746 9.04413 13.4988 10.4548C11.8983 9.01107 10.7243 7.7399 11.5118 6.55711C12.668 4.8209 15.8716 3.97891 15.1638 1.19116Z" fill="#CA3132"/>
<path fill-rule="evenodd" clip-rule="evenodd" d="M11.8799 18.0239C14.9203 18.2184 19.5903 17.9159 19.7011 16.4768C19.7011 16.4768 19.4884 17.0223 17.188 17.455C14.5926 17.9437 11.3909 17.8868 9.49258 17.5734C9.49258 17.5734 9.88157 17.8953 11.8799 18.0239Z" fill="#3174B9"/>
<path fill-rule="evenodd" clip-rule="evenodd" d="M19.5606 20.6043H19.4681V20.5524H19.7176V20.6043H19.6251V20.8631H19.5606V20.6043ZM20.0584 20.6171H20.0573L19.9654 20.863H19.9232L19.8319 20.6171H19.8308V20.863H19.7694V20.5523H19.8595L19.9441 20.7721L20.0287 20.5523H20.1179V20.863H20.0585V20.6171H20.0584ZM11.3816 23.5213C11.0949 23.7698 10.7918 23.9096 10.5196 23.9096C10.1319 23.9096 9.9215 23.6766 9.9215 23.3039C9.9215 22.9003 10.1467 22.6051 11.0483 22.6051H11.3815V23.5213H11.3816ZM12.1731 24.4141V21.6502C12.1731 20.9438 11.7702 20.4776 10.7991 20.4776C10.2325 20.4776 9.73576 20.6176 9.33193 20.7959L9.44819 21.2854C9.7663 21.1686 10.1776 21.0603 10.5813 21.0603C11.1407 21.0603 11.3815 21.2854 11.3815 21.7515V22.1009H11.1019C9.74291 22.1009 9.12966 22.6282 9.12966 23.4209C9.12966 24.1039 9.53378 24.4921 10.2945 24.4921C10.7835 24.4921 11.1488 24.2903 11.4899 23.9949L11.552 24.4141H12.1731ZM14.8144 24.4141H13.8276L12.6394 20.548H13.5014L14.2389 22.9237L14.403 23.6376C14.7751 22.6051 15.0391 21.5569 15.1712 20.548H16.0094C15.785 21.8209 15.3807 23.2186 14.8144 24.4141ZM18.6016 23.5213C18.314 23.7698 18.0109 23.9096 17.7393 23.9096C17.3516 23.9096 17.1415 23.6766 17.1415 23.3039C17.1415 22.9003 17.3669 22.6051 18.2678 22.6051H18.6016V23.5213ZM19.3933 24.4141V21.6502C19.3933 20.9438 18.9892 20.4776 18.019 20.4776C17.4519 20.4776 16.9553 20.6176 16.5515 20.7959L16.6677 21.2854C16.9859 21.1686 17.398 21.0603 17.8018 21.0603C18.3604 21.0603 18.6015 21.2854 18.6015 21.7515V22.1009H18.3219C16.9627 22.1009 16.3499 22.6282 16.3499 23.4209C16.3499 24.1039 16.7532 24.4921 17.5141 24.4921C18.0035 24.4921 18.3682 24.2903 18.7102 23.9949L18.7725 24.4141H19.3933ZM8.2619 25.0711C8.03639 25.4007 7.67163 25.6616 7.27284 25.8088L6.88203 25.3486C7.18586 25.1926 7.44611 24.9409 7.56728 24.7067C7.67163 24.498 7.7152 24.2296 7.7152 23.5873V19.1729H8.55634V23.5263C8.55634 24.3855 8.4877 24.7328 8.2619 25.0711Z" fill="#CA3132"/>
</g>
<defs>
<clipPath id="clip0_0_945">
<rect width="27" height="27" fill="white"/>
</clipPath>
</defs>
</svg>
