<svg width="27" height="27" viewBox="0 0 27 27" fill="none" xmlns="http://www.w3.org/2000/svg">
<path d="M13.3219 4.43994C8.43563 4.43994 4.45876 8.41869 4.45876 13.3031C4.45876 18.1874 8.43751 22.1662 13.3219 22.1662C18.2063 22.1662 22.185 18.1874 22.185 13.3031C22.185 8.41869 18.2063 4.43994 13.3219 4.43994ZM13.3088 5.22744C13.4603 5.23137 13.6043 5.29453 13.7101 5.40347C13.8159 5.5124 13.8751 5.65848 13.875 5.81057C13.875 5.96522 13.8136 6.11354 13.7042 6.2229C13.5949 6.33226 13.4465 6.39369 13.2919 6.39369C13.1372 6.39369 12.9889 6.33226 12.8795 6.2229C12.7702 6.11354 12.7088 5.96522 12.7088 5.81057C12.7087 5.73255 12.7243 5.65532 12.7547 5.58345C12.7851 5.51158 12.8295 5.44653 12.8855 5.39215C12.9414 5.33778 13.0077 5.29518 13.0804 5.26689C13.1531 5.2386 13.2308 5.22518 13.3088 5.22744ZM14.6438 6.18744C15.6674 6.37918 16.6371 6.79146 17.4854 7.39565C18.3338 7.99983 19.0404 8.78144 19.5563 9.68619L18.8681 11.2387C18.75 11.5068 18.8719 11.8218 19.1381 11.9418L20.4619 12.5287C20.5029 12.9425 20.508 13.359 20.4769 13.7737H19.74C19.6669 13.7737 19.6369 13.8224 19.6369 13.8937V14.2312C19.6369 15.0262 19.1888 15.2006 18.795 15.2437C18.42 15.2868 18.0056 15.0862 17.9531 14.8574C17.7319 13.6143 17.3644 13.3499 16.7831 12.8906C17.505 12.4331 18.255 11.7562 18.255 10.8524C18.255 9.87557 17.5856 9.26057 17.13 8.95869C16.4888 8.53682 15.78 8.45244 15.5888 8.45244H7.97626C9.02888 7.27652 10.4398 6.48043 11.9906 6.18744L12.8888 7.12869C13.0913 7.34057 13.4269 7.34994 13.6388 7.14557L14.6438 6.18744ZM6.35626 10.5037C6.50797 10.5081 6.65199 10.5715 6.75772 10.6803C6.86346 10.7892 6.92257 10.935 6.92251 11.0868C6.92251 11.2415 6.86107 11.3898 6.75171 11.4991C6.64236 11.6085 6.49404 11.6699 6.33938 11.6699C6.18473 11.6699 6.03641 11.6085 5.92705 11.4991C5.81769 11.3898 5.75626 11.2415 5.75626 11.0868C5.75622 11.0088 5.77185 10.9316 5.8022 10.8597C5.83256 10.7878 5.87702 10.7228 5.93297 10.6684C5.98892 10.614 6.05521 10.5714 6.12792 10.5431C6.20062 10.5148 6.27827 10.5014 6.35626 10.5037ZM20.2594 10.5299C20.4111 10.5343 20.5551 10.5977 20.6608 10.7066C20.7666 10.8155 20.8257 10.9613 20.8256 11.1131C20.8256 11.2677 20.7642 11.416 20.6548 11.5254C20.5455 11.6348 20.3972 11.6962 20.2425 11.6962C20.0879 11.6962 19.9395 11.6348 19.8302 11.5254C19.7208 11.416 19.6594 11.2677 19.6594 11.1131C19.6594 11.035 19.675 10.9578 19.7053 10.8859C19.7357 10.8141 19.7802 10.749 19.8361 10.6947C19.892 10.6403 19.9583 10.5977 20.031 10.5694C20.1038 10.5411 20.1814 10.5277 20.2594 10.5299ZM7.45501 10.6237H8.47126V15.2062H6.42001C6.16667 14.3166 6.08772 13.3864 6.18751 12.4668L7.44376 11.9081C7.71188 11.7881 7.83376 11.4749 7.71376 11.2068L7.45501 10.6237ZM11.6963 10.6724H14.1169C14.2425 10.6724 15 10.8168 15 11.3849C15 11.8556 14.4188 12.0243 13.9406 12.0243H11.6944L11.6963 10.6724ZM11.6963 13.9649H13.5506C13.7194 13.9649 14.4563 14.0137 14.6906 14.9549C14.7638 15.2437 14.9269 16.1849 15.0375 16.4868C15.1481 16.8243 15.5963 17.4993 16.0744 17.4993H19.1006C18.8978 17.7709 18.676 18.0278 18.4369 18.2681L17.205 18.0037C16.9181 17.9418 16.635 18.1256 16.5731 18.4124L16.2806 19.7774C15.34 20.2035 14.3186 20.4216 13.286 20.4167C12.2534 20.4119 11.234 20.1842 10.2975 19.7493L10.005 18.3843C9.94313 18.0974 9.66188 17.9137 9.37501 17.9756L8.16938 18.2343C7.94565 18.0035 7.73768 17.758 7.54688 17.4993H13.41C13.4756 17.4993 13.5206 17.4881 13.5206 17.4262V15.3524C13.5206 15.2924 13.4756 15.2793 13.41 15.2793H11.6944L11.6963 13.9649ZM8.99063 18.7143C9.14234 18.7187 9.28636 18.7821 9.3921 18.891C9.49783 18.9998 9.55694 19.1457 9.55688 19.2974C9.55688 19.4521 9.49544 19.6004 9.38609 19.7098C9.27673 19.8191 9.12841 19.8806 8.97376 19.8806C8.8191 19.8806 8.67078 19.8191 8.56142 19.7098C8.45207 19.6004 8.39063 19.4521 8.39063 19.2974C8.3906 19.2194 8.40622 19.1422 8.43658 19.0703C8.46693 18.9985 8.5114 18.9334 8.56735 18.879C8.6233 18.8247 8.68959 18.7821 8.76229 18.7538C8.835 18.7255 8.91265 18.7121 8.99063 18.7143ZM17.625 18.7406C17.7767 18.745 17.9207 18.8083 18.0265 18.9172C18.1322 19.0261 18.1913 19.1719 18.1913 19.3237C18.1913 19.4783 18.1298 19.6267 18.0205 19.736C17.9111 19.8454 17.7628 19.9068 17.6081 19.9068C17.4535 19.9068 17.3052 19.8454 17.1958 19.736C17.0864 19.6267 17.025 19.4783 17.025 19.3237C17.025 19.2457 17.0406 19.1684 17.071 19.0966C17.1013 19.0247 17.1458 18.9597 17.2017 18.9053C17.2577 18.8509 17.324 18.8083 17.3967 18.78C17.4694 18.7517 17.547 18.7383 17.625 18.7406Z" fill="black"/>
<path fill-rule="evenodd" clip-rule="evenodd" d="M21.69 13.3031C21.69 15.5225 20.8084 17.6509 19.239 19.2203C17.6697 20.7896 15.5412 21.6712 13.3219 21.6712C11.1025 21.6712 8.97404 20.7896 7.40471 19.2203C5.83538 17.6509 4.95374 15.5225 4.95374 13.3031C4.95374 11.0837 5.83538 8.95527 7.40471 7.38594C8.97404 5.81661 11.1025 4.93498 13.3219 4.93498C15.5412 4.93498 17.6697 5.81661 19.239 7.38594C20.8084 8.95527 21.69 11.0837 21.69 13.3031ZM21.5325 12.495L22.8375 13.3031L21.5325 14.1112L22.6537 15.1593L21.2175 15.6975L22.1137 16.9443L20.5969 17.1918L21.2344 18.5906L19.6987 18.5362L20.0512 20.0325L18.555 19.68L18.6094 21.2156L17.2106 20.5781L16.9631 22.095L15.7162 21.1987L15.1781 22.635L14.13 21.5137L13.3219 22.8187L12.5137 21.5137L11.4656 22.635L10.9275 21.1987L9.68062 22.095L9.43312 20.5781L8.03437 21.2156L8.08875 19.68L6.59249 20.0325L6.94499 18.5362L5.40937 18.5906L6.04687 17.1918L4.52999 16.9443L5.42624 15.6975L3.98999 15.1593L5.11124 14.1112L3.80624 13.3031L5.11124 12.495L3.98999 11.4468L5.42624 10.9087L4.52999 9.66185L6.04687 9.41435L5.40937 8.0156L6.94499 8.06997L6.59249 6.57372L8.08875 6.92622L8.03437 5.3906L9.43312 6.0281L9.68062 4.51123L10.9275 5.40748L11.4656 3.97123L12.5137 5.09248L13.3219 3.78748L14.13 5.09248L15.1781 3.97123L15.7162 5.40748L16.9631 4.51123L17.2106 6.0281L18.6094 5.3906L18.555 6.92622L20.0512 6.57372L19.6987 8.06997L21.2344 8.0156L20.5969 9.41435L22.1137 9.66185L21.2175 10.9087L22.6537 11.4468L21.5325 12.495Z" fill="black" stroke="black" stroke-width="3" stroke-linecap="round" stroke-linejoin="round"/>
</svg>
