<svg width="27" height="27" viewBox="0 0 27 27" fill="none" xmlns="http://www.w3.org/2000/svg">
<g clip-path="url(#clip0_0_918)">
<path d="M25.2661 3.56943C22.2661 -0.0229459 16.2936 -1.07549 12 1.18977L4.43119 5.21688C2.36697 6.29231 0.935774 8.05417 0.52293 10.0449C0.165132 11.7152 0.467884 13.4313 1.43119 14.9186C0.770636 15.7423 0.330269 16.6576 0.137609 17.6186C-0.302758 19.655 0.275224 21.7601 1.70642 23.4304C4.73394 27.0228 10.6789 28.0754 14.9725 25.8101L22.5413 21.8059C24.6055 20.7304 26.0367 18.9686 26.4495 16.9779C26.8073 15.3076 26.5046 13.5915 25.5413 12.1042C26.2018 11.2804 26.6422 10.3652 26.8349 9.40417C27.3027 7.34485 26.7248 5.23977 25.2661 3.56943Z" fill="#FF3E00"/>
<path d="M11.2569 23.7738C8.80734 24.3 6.2477 23.4992 4.81651 21.7831C3.93578 20.7763 3.6055 19.5178 3.85321 18.2822C3.90825 18.0763 3.9633 17.8932 4.01835 17.6873L4.15596 17.3212L4.54128 17.55C5.44954 18.0992 6.44036 18.511 7.51376 18.7856L7.78899 18.8543L7.76147 19.0831C7.73394 19.4034 7.84403 19.7466 8.06422 20.0212C8.50458 20.5475 9.27523 20.7992 10.0183 20.639C10.1835 20.5932 10.3486 20.5475 10.4862 20.4788L18.0275 16.4746C18.4128 16.2687 18.6605 15.9712 18.7431 15.6051C18.8257 15.239 18.7156 14.85 18.4679 14.5526C18.0275 14.0263 17.2569 13.7975 16.5138 13.9576C16.3486 14.0034 16.1835 14.0492 16.0459 14.1178L13.156 15.6509C12.6881 15.9026 12.1651 16.0856 11.6147 16.2C9.16513 16.7263 6.6055 15.9254 5.17431 14.2093C4.3211 13.2026 3.9633 11.9441 4.23853 10.7085C4.48624 9.51867 5.36697 8.44324 6.6055 7.80257L14.1743 3.79833C14.6422 3.54663 15.1651 3.36358 15.7156 3.22629C18.1651 2.70002 20.7248 3.50087 22.156 5.21697C23.0367 6.22375 23.367 7.48223 23.1193 8.71782C23.0642 8.92375 23.0092 9.1068 22.9266 9.31273L22.789 9.67884L22.4037 9.45002C21.4954 8.90087 20.5046 8.48901 19.4312 8.21443L19.156 8.14579L19.1835 7.91697C19.211 7.59663 19.1009 7.25341 18.8807 6.97884C18.4404 6.45257 17.6697 6.22375 16.9266 6.38392C16.7615 6.42968 16.5963 6.47545 16.4587 6.54409L8.91743 10.5483C8.53211 10.7543 8.2844 11.0517 8.20183 11.4178C8.11926 11.7839 8.22935 12.1729 8.47706 12.4704C8.91743 12.9966 9.68807 13.2254 10.4312 13.0653C10.5963 13.0195 10.7615 12.9738 10.8991 12.9051L13.789 11.3721C14.2569 11.1204 14.7798 10.9373 15.3303 10.8C17.7798 10.2738 20.3394 11.0746 21.7706 12.7907C22.6514 13.7975 22.9816 15.056 22.7339 16.2915C22.4862 17.4814 21.6055 18.5568 20.367 19.1975L12.7982 23.2017C12.3303 23.4534 11.8073 23.6365 11.2569 23.7738Z" fill="white"/>
</g>
<defs>
<clipPath id="clip0_0_918">
<rect width="27" height="27" fill="white"/>
</clipPath>
</defs>
</svg>
